<svg xmlns="http://www.w3.org/2000/svg" viewBox="0 0 240 240" role="img" aria-label="QR Placeholder">
  <rect width="240" height="240" fill="#ffffff"/>
  <rect x="16" y="16" width="56" height="56" fill="#111111"/>
  <rect x="24" y="24" width="40" height="40" fill="#ffffff"/>
  <rect x="32" y="32" width="24" height="24" fill="#111111"/>
  <rect x="168" y="16" width="56" height="56" fill="#111111"/>
  <rect x="176" y="24" width="40" height="40" fill="#ffffff"/>
  <rect x="184" y="32" width="24" height="24" fill="#111111"/>
  <rect x="16" y="168" width="56" height="56" fill="#111111"/>
  <rect x="24" y="176" width="40" height="40" fill="#ffffff"/>
  <rect x="32" y="184" width="24" height="24" fill="#111111"/>
  <rect x="88" y="88" width="12" height="12" fill="#111111"/>
  <rect x="104" y="88" width="12" height="12" fill="#111111"/>
  <rect x="120" y="88" width="12" height="12" fill="#111111"/>
  <rect x="136" y="88" width="12" height="12" fill="#111111"/>
  <rect x="152" y="88" width="12" height="12" fill="#111111"/>
  <rect x="88" y="104" width="12" height="12" fill="#111111"/>
  <rect x="120" y="104" width="12" height="12" fill="#111111"/>
  <rect x="152" y="104" width="12" height="12" fill="#111111"/>
  <rect x="88" y="120" width="12" height="12" fill="#111111"/>
  <rect x="104" y="120" width="12" height="12" fill="#111111"/>
  <rect x="136" y="120" width="12" height="12" fill="#111111"/>
  <rect x="152" y="120" width="12" height="12" fill="#111111"/>
  <rect x="88" y="136" width="12" height="12" fill="#111111"/>
  <rect x="120" y="136" width="12" height="12" fill="#111111"/>
  <rect x="136" y="136" width="12" height="12" fill="#111111"/>
  <rect x="168" y="136" width="12" height="12" fill="#111111"/>
  <rect x="88" y="152" width="12" height="12" fill="#111111"/>
  <rect x="104" y="152" width="12" height="12" fill="#111111"/>
  <rect x="120" y="152" width="12" height="12" fill="#111111"/>
  <rect x="152" y="152" width="12" height="12" fill="#111111"/>
  <rect x="168" y="152" width="12" height="12" fill="#111111"/>
  <rect x="0" y="212" width="240" height="28" fill="#111111"/>
  <text x="120" y="231" text-anchor="middle" font-size="14" font-family="Arial, sans-serif" fill="#ffffff">QR PLACEHOLDER</text>
</svg>
